<svg xmlns="http://www.w3.org/2000/svg" width="468" height="689" fill="none"><path stroke="#A668F7" stroke-width="2" d="M467 229.994c0 126.454-104.301 228.995-233 228.995S1 356.448 1 229.994C1 103.54 105.301 1 234 1s233 102.54 233 228.994Z"/><path stroke="#A668F7" stroke-width="2" d="M320 229.994c0 46.658-38.487 84.511-86 84.511s-86-37.853-86-84.511c0-46.658 38.487-84.511 86-84.511s86 37.853 86 84.511Z"/><mask id="a" fill="#fff"><path fill-rule="evenodd" d="M468 689c0-127.022-104.765-229.994-234-229.994S0 561.978 0 689h468Z" clip-rule="evenodd"/></mask><path fill="#A668F7" d="M468 689v2h2v-2h-2ZM0 689h-2v2h2v-2Zm234-227.994c128.163 0 232 102.109 232 227.994h4c0-128.159-105.694-231.994-236-231.994v4ZM2 689c0-125.885 103.837-227.994 232-227.994v-4C103.694 457.006-2 560.841-2 689h4Zm-2 2h468v-4H0v4Z" mask="url(#a)"/></svg>